<svg width="90" height="90" viewBox="0 0 90 90" fill="none" xmlns="http://www.w3.org/2000/svg">
<rect x="0.5" y="0.5" width="89" height="89" rx="15.5" stroke="#D8D8D8"/>
<g clip-path="url(#clip0_1_173535)">
<path d="M49.5731 37.546C51.2751 33.4065 49.299 28.6711 45.1595 26.9691C41.02 25.2672 36.2846 27.2432 34.5826 31.3827C32.8807 35.5222 34.8567 40.2576 38.9962 41.9596C43.1357 43.6615 47.8711 41.6855 49.5731 37.546Z" stroke="#1D1D1D" stroke-width="2" stroke-linecap="round" stroke-linejoin="round"/>
<path d="M57.54 61.4215C57.54 52.8828 51.9278 42.5742 42.085 42.5742C32.2421 42.5742 26.6299 52.8828 26.6299 61.4215H57.54Z" stroke="#1D1D1D" stroke-width="2" stroke-linecap="round" stroke-linejoin="round"/>
<path d="M56.3523 65.0004C60.978 65.0004 64.728 61.2505 64.728 56.6247C64.728 51.999 60.978 48.249 56.3523 48.249C51.7265 48.249 47.9766 51.999 47.9766 56.6247C47.9766 61.2505 51.7265 65.0004 56.3523 65.0004Z" fill="#1D1D1D"/>
<path d="M54.5284 60.9555C54.5284 60.9555 54.4818 60.9555 54.4586 60.9555C54.2102 60.9322 53.985 60.7925 53.8531 60.5829L51.2682 56.3679C51.0431 55.9953 51.1595 55.514 51.5243 55.2889C51.8969 55.0638 52.3782 55.1802 52.6033 55.545L54.6293 58.8519L60.1717 52.5565C60.4589 52.2305 60.9557 52.1994 61.2818 52.4866C61.6078 52.7738 61.6388 53.2706 61.3516 53.5967L55.1106 60.6916C54.9631 60.8623 54.7458 60.9555 54.5207 60.9555H54.5284Z" fill="white"/>
</g>
<defs>
<clipPath id="clip0_1_173535">
<rect width="39.4566" height="40" fill="white" transform="translate(25.2715 25)"/>
</clipPath>
</defs>
</svg>
