<svg width="70" height="70" viewBox="0 0 70 70" fill="none" xmlns="http://www.w3.org/2000/svg">
<path opacity="0.5" d="M35 70C54.33 70 70 54.33 70 35C70 15.67 54.33 0 35 0C15.67 0 0 15.67 0 35C0 54.33 15.67 70 35 70Z" fill="#1D1D1D" fill-opacity="0.9"/>
<path d="M25.0244 41.9067C24.2306 42.2883 23.3177 42.3391 22.4865 42.0476C21.6554 41.7562 20.974 41.1465 20.5924 40.3528L17.1614 33.2137C16.7801 32.4199 16.7297 31.5072 17.0213 30.6762C17.313 29.8453 17.9227 29.1642 18.7164 28.7827C19.1094 28.5935 19.5358 28.4836 19.9713 28.4593C20.4068 28.435 20.8429 28.4968 21.2545 28.6411C21.6661 28.7854 22.0452 29.0094 22.3702 29.3004C22.6952 29.5913 22.9596 29.9435 23.1484 30.3368L26.5794 37.4748C26.7684 37.8678 26.8782 38.2943 26.9023 38.7298C26.9265 39.1653 26.8646 39.6014 26.7202 40.013C26.5758 40.4246 26.3517 40.8036 26.0607 41.1286C25.7697 41.4535 25.4176 41.7179 25.0244 41.9067Z" fill="white"/>
<path d="M23.5882 43.1079C22.7974 43.1055 22.0232 42.8812 21.3537 42.4604C20.6842 42.0396 20.1463 41.4393 19.8012 40.7279L16.3702 33.5889C16.1166 33.0902 15.9653 32.5459 15.925 31.9879C15.8847 31.4299 15.9563 30.8695 16.1355 30.3395C16.3148 29.8096 16.5981 29.3208 16.9689 28.9019C17.3397 28.4829 17.7904 28.1423 18.2946 27.8999C18.7988 27.6576 19.3464 27.5184 19.9052 27.4906C20.4639 27.4627 21.0226 27.5468 21.5484 27.7379C22.0742 27.9289 22.5566 28.2231 22.9671 28.6031C23.3777 28.9831 23.7082 29.4414 23.9392 29.9509L27.3692 37.0899C27.6764 37.7297 27.8165 38.437 27.7763 39.1457C27.7361 39.8544 27.517 40.5413 27.1394 41.1423C26.7618 41.7433 26.238 42.2388 25.617 42.5825C24.996 42.9263 24.298 43.107 23.5882 43.1079ZM20.1532 29.3259C19.787 29.3259 19.4256 29.4089 19.0962 29.5689C18.5125 29.8501 18.0642 30.3514 17.8497 30.9628C17.6353 31.5742 17.6721 32.2457 17.9522 32.8299L21.3822 39.9679C21.5831 40.3822 21.8963 40.7317 22.2861 40.9768C22.676 41.2218 23.1268 41.3525 23.5872 41.3539C24 41.3532 24.4058 41.248 24.7669 41.048C25.128 40.8481 25.4326 40.56 25.6523 40.2105C25.872 39.8611 25.9995 39.4617 26.0231 39.0496C26.0467 38.6375 25.9655 38.2261 25.7872 37.8539L22.3562 30.7149C22.1553 30.3011 21.8424 29.952 21.4529 29.7073C21.0635 29.4627 20.6131 29.3323 20.1532 29.3309V29.3259Z" fill="#555555"/>
<path d="M25.622 35.4996L31.528 18.6636C31.7676 17.9807 32.2685 17.4209 32.9208 17.1073C33.573 16.7938 34.3231 16.7521 35.006 16.9916C35.689 17.2313 36.2488 17.7325 36.5623 18.3849C36.8758 19.0373 36.9175 19.7875 36.678 20.4706L32.998 30.9596L34.177 27.5996C34.2957 27.2613 34.4799 26.9497 34.719 26.6826C34.9582 26.4155 35.2476 26.1981 35.5707 26.0428C35.8939 25.8876 36.2444 25.7975 36.6024 25.7777C36.9604 25.7579 37.3187 25.8089 37.657 25.9276C37.9952 26.0463 38.3066 26.2304 38.5736 26.4695C38.8406 26.7086 39.0579 26.998 39.2131 27.321C39.3682 27.6441 39.4582 27.9945 39.478 28.3523C39.4977 28.7102 39.4467 29.0684 39.328 29.4066L38.149 32.7666L39.075 30.1276C39.1936 29.7894 39.3777 29.4778 39.6167 29.2107C39.8558 28.9436 40.1451 28.7262 40.4681 28.5709C40.7912 28.4156 41.1417 28.3256 41.4996 28.3058C41.8575 28.286 42.2158 28.3369 42.554 28.4556C42.8923 28.5742 43.2038 28.7583 43.4709 28.9973C43.738 29.2363 43.9554 29.5257 44.1107 29.8487C44.2659 30.1718 44.356 30.5223 44.3758 30.8802C44.3956 31.2381 44.3447 31.5964 44.226 31.9346L43.3 34.5736L43.888 32.8976C44.0067 32.5593 44.1909 32.2477 44.43 31.9806C44.6692 31.7135 44.9586 31.4961 45.2817 31.3409C45.6049 31.1856 45.9554 31.0955 46.3134 31.0757C46.6714 31.056 47.0297 31.1069 47.368 31.2256C48.0508 31.4655 48.6103 31.9668 48.9237 32.6192C49.237 33.2716 49.2785 34.0216 49.039 34.7046L47.43 39.2926L45.09 45.9646C44.1255 48.7132 42.1088 50.9662 39.4834 52.2281C36.858 53.49 33.8389 53.6574 31.09 52.6936L28.784 51.8846C27.0867 51.2909 25.5612 50.2892 24.3418 48.9676C23.1224 47.6461 22.2465 46.0451 21.791 44.3056L19.958 39.2056" fill="white"/>
<path d="M34.7342 54.1979C33.3935 54.1967 32.0627 53.9684 30.7982 53.5229L28.4922 52.7139C26.6654 52.0739 25.0231 50.9963 23.7088 49.5753C22.3944 48.1542 21.448 46.433 20.9522 44.5619L19.1322 39.4949C19.0595 39.2774 19.0748 39.04 19.1749 38.8336C19.275 38.6272 19.452 38.4681 19.6678 38.3905C19.8837 38.3129 20.1214 38.3228 20.33 38.4182C20.5386 38.5136 20.7016 38.6869 20.7842 38.9009L22.6172 44.0009C22.6262 44.0259 22.6332 44.0499 22.6402 44.0749C23.0586 45.6763 23.8643 47.1504 24.9862 48.3674C26.1081 49.5843 27.512 50.5069 29.0742 51.0539L31.3802 51.8629C33.9088 52.7503 36.6863 52.5973 39.1021 51.4375C41.5179 50.2777 43.3743 48.206 44.2632 45.6779L48.2132 34.4179C48.2952 34.189 48.3314 33.9461 48.3196 33.7031C48.3078 33.4602 48.2483 33.222 48.1444 33.002C48.0406 32.7821 47.8944 32.5848 47.7143 32.4213C47.5342 32.2579 47.3236 32.1315 47.0947 32.0494C46.8657 31.9674 46.6228 31.9311 46.3799 31.9429C46.1369 31.9547 45.8987 32.0143 45.6788 32.1182C45.4588 32.222 45.2615 32.3682 45.098 32.5483C44.9346 32.7284 44.8082 32.939 44.7262 33.1679L44.1262 34.8679C44.0491 35.0875 43.888 35.2675 43.6782 35.3683C43.4685 35.4691 43.2273 35.4824 43.0077 35.4054C42.7881 35.3284 42.6081 35.1672 42.5073 34.9575C42.4065 34.7477 42.3931 34.5065 42.4702 34.2869L43.0582 32.6109L43.0702 32.5769L43.3962 31.6459C43.5587 31.1818 43.5303 30.6721 43.3171 30.2289C43.1038 29.7858 42.7233 29.4455 42.2592 29.2829C41.795 29.1203 41.2853 29.1488 40.8422 29.362C40.399 29.5752 40.0587 29.9558 39.8962 30.4199L38.9702 33.0589C38.8931 33.2785 38.732 33.4585 38.5222 33.5593C38.3125 33.6601 38.0713 33.6735 37.8517 33.5964C37.6321 33.5194 37.4521 33.3583 37.3513 33.1485C37.2505 32.9387 37.2371 32.6975 37.3142 32.4779L38.4932 29.1179C38.6503 28.6582 38.6204 28.1552 38.4101 27.7172C38.1998 27.2793 37.8258 26.9415 37.3688 26.7767C36.9117 26.612 36.4083 26.6334 35.9669 26.8364C35.5255 27.0394 35.1815 27.4077 35.0092 27.8619L33.8202 31.2519C33.7375 31.464 33.5756 31.6357 33.3688 31.7307C33.162 31.8258 32.9263 31.8368 32.7115 31.7615C32.4967 31.6861 32.3195 31.5302 32.2174 31.3268C32.1153 31.1233 32.0962 30.8882 32.1642 30.6709L33.3432 27.3109L33.3572 27.2699L35.8442 20.182C36.0067 19.7178 35.9783 19.2081 35.7651 18.765C35.5518 18.3218 35.1713 17.9815 34.7072 17.8189C34.243 17.6563 33.7333 17.6848 33.2902 17.898C32.847 18.1112 32.5067 18.4918 32.3442 18.9559L26.4382 35.7919C26.3611 36.0115 26.2 36.1915 25.9902 36.2923C25.7805 36.3931 25.5393 36.4065 25.3197 36.3294C25.1001 36.2524 24.9201 36.0912 24.8193 35.8815C24.7185 35.6717 24.7051 35.4305 24.7822 35.2109L30.6882 18.3749C30.845 17.9279 31.0884 17.5162 31.4044 17.1632C31.7204 16.8102 32.1028 16.523 32.5298 16.3178C32.9568 16.1126 33.4201 15.9936 33.8931 15.9674C34.3661 15.9413 34.8396 16.0085 35.2867 16.1654C35.7337 16.3223 36.1454 16.5657 36.4984 16.8817C36.8514 17.1976 37.1386 17.5801 37.3438 18.0071C37.549 18.4341 37.668 18.8973 37.6942 19.3704C37.7203 19.8434 37.653 20.3169 37.4962 20.7639L36.0192 24.9729C36.9425 24.7822 37.9037 24.9614 38.6964 25.4719C39.489 25.9824 40.0498 26.7835 40.2582 27.7029C40.7586 27.4959 41.2992 27.404 41.84 27.4341C42.3807 27.4643 42.9078 27.6156 43.3822 27.877C43.8565 28.1384 44.266 28.5031 44.5804 28.9442C44.8947 29.3852 45.1058 29.8913 45.1982 30.4249C45.8402 30.1857 46.537 30.1343 47.2072 30.2769C47.8773 30.4195 48.4929 30.7501 48.9819 31.23C49.4709 31.7099 49.8131 32.3191 49.9683 32.9865C50.1234 33.6538 50.0853 34.3515 49.8582 34.9979L45.9082 46.2579C45.0931 48.5753 43.58 50.5831 41.577 52.0053C39.5741 53.4275 37.1797 54.1942 34.7232 54.1999L34.7342 54.1979Z" fill="#555555"/>
<path d="M55.5842 20.6259H42.9902C42.7035 20.6259 42.4285 20.512 42.2258 20.3093C42.0231 20.1065 41.9092 19.8316 41.9092 19.5449C41.9092 19.2582 42.0231 18.9832 42.2258 18.7805C42.4285 18.5778 42.7035 18.4639 42.9902 18.4639H55.5842C55.8709 18.4639 56.1458 18.5778 56.3486 18.7805C56.5513 18.9832 56.6652 19.2582 56.6652 19.5449C56.6652 19.8316 56.5513 20.1065 56.3486 20.3093C56.1458 20.512 55.8709 20.6259 55.5842 20.6259Z" fill="#FF53A5"/>
<path d="M53.6953 24.0837C53.4816 24.0835 53.2728 24.0201 53.0951 23.9013C52.9175 23.7825 52.7791 23.6137 52.6973 23.4162C52.6156 23.2188 52.5942 23.0016 52.6358 22.792C52.6774 22.5824 52.7803 22.3899 52.9313 22.2387L55.6313 19.5387L52.9313 16.8387C52.8279 16.739 52.7454 16.6197 52.6886 16.4877C52.6318 16.3558 52.6019 16.2138 52.6006 16.0702C52.5993 15.9265 52.6267 15.7841 52.6811 15.6511C52.7355 15.5182 52.8158 15.3974 52.9174 15.2958C53.0191 15.1943 53.1399 15.114 53.2729 15.0597C53.4059 15.0054 53.5484 14.9782 53.692 14.9795C53.8356 14.9809 53.9776 15.0109 54.1095 15.0677C54.2414 15.1246 54.3607 15.2072 54.4603 15.3107L57.9243 18.7747C58.0247 18.875 58.1043 18.9941 58.1587 19.1252C58.213 19.2563 58.2409 19.3968 58.2409 19.5387C58.2409 19.6806 58.213 19.8211 58.1587 19.9522C58.1043 20.0833 58.0247 20.2024 57.9243 20.3027L54.4603 23.7667C54.3601 23.8675 54.2408 23.9473 54.1095 24.0018C53.9782 24.0562 53.8374 24.084 53.6953 24.0837Z" fill="#FF53A5"/>
</svg>
