<svg width="40" height="40" viewBox="0 0 40 40" fill="none" xmlns="http://www.w3.org/2000/svg">
<path d="M12.0209 27.9334H22.758V25.8393H12.0209V27.9334ZM12.0209 21.0468H27.9784V18.9526H12.0209V21.0468ZM12.0209 14.1601H27.9784V12.0659H12.0209V14.1601ZM8.44009 34.1663C7.7237 34.1663 7.11009 33.9109 6.59926 33.4001C6.08842 32.8893 5.83301 32.2756 5.83301 31.5593V8.44009C5.83301 7.7237 6.08842 7.11009 6.59926 6.59926C7.11009 6.08843 7.7237 5.83301 8.44009 5.83301H31.5593C32.2756 5.83301 32.8893 6.08843 33.4001 6.59926C33.9109 7.11009 34.1663 7.7237 34.1663 8.44009V31.5593C34.1663 32.2756 33.9109 32.8893 33.4001 33.4001C32.8893 33.9109 32.2756 34.1663 31.5593 34.1663H8.44009ZM8.44009 32.0722H31.5593C31.6876 32.0722 31.8052 32.0188 31.9122 31.9122C32.0188 31.8052 32.0722 31.6876 32.0722 31.5593V8.44009C32.0722 8.31176 32.0188 8.19412 31.9122 8.08717C31.8052 7.98051 31.6876 7.92718 31.5593 7.92718H8.44009C8.31176 7.92718 8.19412 7.98051 8.08717 8.08717C7.98051 8.19412 7.92717 8.31176 7.92717 8.44009V31.5593C7.92717 31.6876 7.98051 31.8052 8.08717 31.9122C8.19412 32.0188 8.31176 32.0722 8.44009 32.0722Z" fill="white"/>
</svg>
