<svg width="40" height="40" viewBox="0 0 40 40" fill="none" xmlns="http://www.w3.org/2000/svg">
<rect x="0.5" y="0.5" width="39" height="39" rx="7.5" stroke="#D8D8D8"/>
<path d="M10.7881 24.3965H14.4496V28.3465V28.3965H14.4996H25.4996H25.5496V28.3465V24.3965H29.2111H29.2611V24.3465V18.6543C29.2611 17.9334 29.0167 17.3267 28.5277 16.8377C28.0387 16.3487 27.432 16.1043 26.7111 16.1043H25.5496V11.6543V11.6043H25.4996H14.4996H14.4496V11.6543V16.1043H13.2881C12.5766 16.1043 11.9725 16.3488 11.4789 16.8375C10.985 17.3265 10.7381 17.9332 10.7381 18.6543V24.3465V24.3965H10.7881ZM16.0496 16.1043V13.2043H23.9496V16.1043H16.0496ZM14.4996 21.0273H14.4496V21.0773V22.7965H12.3381V18.6543C12.3381 18.3836 12.4291 18.159 12.6109 17.9772C12.7928 17.7953 13.0173 17.7043 13.2881 17.7043H26.7111C26.9818 17.7043 27.2064 17.7953 27.3882 17.9772C27.5701 18.159 27.6611 18.3836 27.6611 18.6543V22.7965H25.5496V21.0773V21.0273H25.4996H14.4996ZM25.8073 20.2043C26.1033 20.2043 26.3537 20.1037 26.5552 19.9022C26.7567 19.7006 26.8573 19.4502 26.8573 19.1543C26.8573 18.8584 26.7567 18.6079 26.5552 18.4064C26.3537 18.2049 26.1033 18.1043 25.8073 18.1043C25.5114 18.1043 25.261 18.2049 25.0595 18.4064C24.858 18.6079 24.7573 18.8584 24.7573 19.1543C24.7573 19.4502 24.858 19.7006 25.0595 19.9022C25.261 20.1037 25.5114 20.2043 25.8073 20.2043ZM16.0496 22.6273H23.9496V26.7965H16.0496V22.6273Z" fill="#555555" stroke="#555555" stroke-width="0.1"/>
</svg>
