<svg width="40" height="40" viewBox="0 0 40 40" fill="none" xmlns="http://www.w3.org/2000/svg">
<rect x="0.5" y="0.5" width="39" height="39" rx="7.5" stroke="#D8D8D8"/>
<path d="M23.0879 13.5755L23.0879 13.5754C23.0729 13.4551 23.0655 13.3274 23.0655 13.1923C23.0655 12.4313 23.3326 11.7829 23.8659 11.2499L23.8659 11.2499C24.3994 10.7169 25.0484 10.45 25.81 10.45C26.5716 10.45 27.2198 10.7172 27.7517 11.2507C28.2836 11.784 28.55 12.4329 28.55 13.1945C28.55 13.9561 28.2831 14.6044 27.7501 15.1364L27.7148 15.101L27.7501 15.1364C27.2171 15.6682 26.5687 15.9345 25.8077 15.9345C25.4204 15.9345 25.0593 15.8608 24.725 15.713C24.725 15.713 24.725 15.713 24.725 15.713L24.7452 15.6673L23.0879 13.5755ZM23.0879 13.5755C23.1016 13.6845 23.1256 13.7952 23.1597 13.9078L16.1161 18.0448C15.8762 17.8033 15.5934 17.6131 15.2684 17.4743C14.9302 17.3298 14.5682 17.2578 14.1827 17.2578C13.4243 17.2578 12.7781 17.5258 12.247 18.061C11.716 18.5961 11.45 19.2434 11.45 20C11.45 20.7566 11.716 21.4039 12.247 21.939C12.7781 22.4742 13.4243 22.7423 14.1827 22.7423C14.5682 22.7423 14.9302 22.6702 15.2684 22.5257C15.5934 22.3869 15.8761 22.1967 16.1161 21.9552L23.1639 26.1042C23.099 26.4691 23.0655 26.7055 23.0655 26.8078C23.0655 27.5687 23.3318 28.2171 23.8636 28.7501L23.899 28.7148L23.8636 28.7501C24.3956 29.2831 25.0439 29.55 25.8055 29.55C26.5671 29.55 27.216 29.2836 27.7493 28.7517C28.2828 28.2198 28.55 27.5716 28.55 26.81C28.55 26.0484 28.2831 25.3994 27.7501 24.8659L27.7148 24.9012M23.0879 13.5755L27.7148 24.9012M23.8839 24.8621L16.8403 20.7155C16.8744 20.6029 16.8984 20.4921 16.9121 20.3832L16.9121 20.3832C16.9271 20.2629 16.9345 20.1352 16.9345 20C16.9345 19.8648 16.9271 19.7371 16.9121 19.6168L16.9121 19.6168C16.8984 19.5079 16.8744 19.3971 16.8403 19.2845L23.8839 15.1379V24.8621ZM23.8839 24.8621C24.1235 24.6206 24.4041 24.4289 24.725 24.287M23.8839 24.8621L24.7452 24.3328M24.725 24.287L24.7452 24.3328M24.725 24.287C24.725 24.287 24.725 24.287 24.725 24.287L24.7452 24.3328M24.725 24.287C25.0593 24.1392 25.4204 24.0655 25.8077 24.0655C26.5687 24.0655 27.2171 24.3326 27.7501 24.8659L27.7148 24.9012M24.7452 24.3328C25.0728 24.1879 25.4269 24.1155 25.8077 24.1155C26.5556 24.1155 27.1913 24.3774 27.7148 24.9012M26.6219 25.9936L26.6219 25.9936C26.8406 26.2123 26.95 26.4825 26.95 26.8078C26.95 27.133 26.8406 27.4032 26.6219 27.6219C26.4032 27.8406 26.133 27.95 25.8077 27.95C25.4825 27.95 25.2123 27.8406 24.9936 27.6219L24.9936 27.6219C24.7748 27.4032 24.6652 27.133 24.6652 26.8078C24.6652 26.4825 24.7748 26.2123 24.9936 25.9936L24.9936 25.9936C25.2123 25.7748 25.4825 25.6652 25.8077 25.6652C26.133 25.6652 26.4032 25.7748 26.6219 25.9936ZM15.0038 20.814L15.0038 20.814C14.7833 21.0327 14.5108 21.1423 14.1827 21.1423C13.8603 21.1423 13.5924 21.0329 13.3755 20.8143C13.1586 20.5957 13.05 20.3254 13.05 20C13.05 19.6746 13.1586 19.4043 13.3755 19.1857C13.5924 18.9671 13.8603 18.8577 14.1827 18.8577C14.5108 18.8577 14.7833 18.9673 15.0038 19.186L15.0038 19.186C15.2244 19.4047 15.3348 19.6749 15.3348 20C15.3348 20.3251 15.2244 20.5953 15.0038 20.814ZM26.6219 14.0064L26.6219 14.0064C26.4032 14.2252 26.133 14.3348 25.8077 14.3348C25.4825 14.3348 25.2123 14.2252 24.9936 14.0064L24.9936 14.0064C24.7748 13.7877 24.6652 13.5175 24.6652 13.1923C24.6652 12.867 24.7748 12.5968 24.9936 12.3781L24.9936 12.3781C25.2123 12.1594 25.4825 12.05 25.8077 12.05C26.133 12.05 26.4032 12.1594 26.6219 12.3781C26.8406 12.5968 26.95 12.867 26.95 13.1923C26.95 13.5175 26.8406 13.7877 26.6219 14.0064Z" fill="#555555" stroke="#555555" stroke-width="0.1"/>
</svg>
