<svg width="20" height="20" viewBox="0 0 20 20" fill="none" xmlns="http://www.w3.org/2000/svg">
<path d="M8.64448 2.53564C7.43694 2.53564 6.25652 2.89372 5.25249 3.56459C4.24846 4.23546 3.46592 5.189 3.00381 6.30462C2.54171 7.42023 2.4208 8.64783 2.65638 9.83216C2.89196 11.0165 3.47344 12.1044 4.3273 12.9582C5.18116 13.8121 6.26904 14.3936 7.45337 14.6292C8.6377 14.8647 9.8653 14.7438 10.9809 14.2817C12.0965 13.8196 13.0501 13.0371 13.7209 12.033C14.3918 11.029 14.7499 9.84859 14.7499 8.64106C14.7498 7.02183 14.1065 5.46896 12.9615 4.32399C11.8166 3.17903 10.2637 2.53575 8.64448 2.53564V2.53564Z" stroke="white" stroke-width="1.6" stroke-miterlimit="10"/>
<path d="M13.2012 13.1978L17.4651 17.4617" stroke="white" stroke-width="1.6" stroke-miterlimit="10"/>
</svg>
