<svg width="32" height="32" viewBox="0 0 32 32" fill="none" xmlns="http://www.w3.org/2000/svg">
<path d="M13.8351 4.05664C11.903 4.05664 10.0143 4.62956 8.40789 5.70296C6.80145 6.77635 5.54937 8.30201 4.81001 10.087C4.07064 11.872 3.87719 13.8361 4.25411 15.7311C4.63104 17.626 5.56141 19.3666 6.92758 20.7328C8.29376 22.099 10.0344 23.0293 11.9293 23.4063C13.8242 23.7832 15.7884 23.5897 17.5734 22.8504C19.3584 22.111 20.884 20.8589 21.9574 19.2525C23.0308 17.646 23.6037 15.7574 23.6037 13.8253C23.6036 11.2345 22.5743 8.74994 20.7424 6.918C18.9104 5.08605 16.4258 4.05681 13.8351 4.05664V4.05664Z" stroke="white" stroke-width="2" stroke-miterlimit="10"/>
<path d="M21.126 21.1162L27.9483 27.9385" stroke="white" stroke-width="2" stroke-miterlimit="10"/>
</svg>
