<svg width="40" height="40" viewBox="0 0 40 40" fill="none" xmlns="http://www.w3.org/2000/svg">
<path d="M15.8565 10.0699C14.7925 10.1201 14.0659 10.2899 13.4307 10.5395C12.7733 10.7957 12.2161 11.1395 11.6617 11.6959C11.1073 12.2523 10.7659 12.8099 10.5115 13.4683C10.2653 14.105 10.0985 14.8322 10.0515 15.8968C10.0045 16.9614 9.99406 17.3036 9.99926 20.0192C10.0045 22.7348 10.0165 23.0752 10.0681 24.142C10.1189 25.2058 10.2881 25.9322 10.5377 26.5676C10.7943 27.225 11.1377 27.782 11.6943 28.3366C12.2509 28.8912 12.8081 29.2318 13.4681 29.4866C14.1041 29.7324 14.8315 29.9 15.8959 29.9466C16.9603 29.9932 17.3029 30.004 20.0178 29.9988C22.7326 29.9936 23.0744 29.9816 24.141 29.931C25.2076 29.8804 25.9302 29.71 26.5658 29.4616C27.2232 29.2044 27.7806 28.8616 28.3348 28.3048C28.8891 27.748 29.2303 27.19 29.4845 26.5312C29.7309 25.8952 29.8983 25.1678 29.9445 24.1042C29.9911 23.0368 30.0021 22.696 29.9969 19.9808C29.9917 17.2656 29.9795 16.9252 29.9289 15.8588C29.8783 14.7924 29.7089 14.0682 29.4595 13.4323C29.2025 12.7749 28.8595 12.2183 28.303 11.6633C27.7466 11.1083 27.1882 10.7673 26.5296 10.5137C25.8932 10.2675 25.1662 10.0997 24.1018 10.0537C23.0374 10.0077 22.6948 9.99594 19.979 10.0011C17.2631 10.0063 16.9231 10.0179 15.8565 10.0699ZM15.9733 28.1476C14.9983 28.1052 14.4689 27.9432 14.1161 27.8076C13.6489 27.6276 13.3161 27.41 12.9645 27.0618C12.6129 26.7136 12.3969 26.3796 12.2145 25.9134C12.0775 25.5606 11.9125 25.0318 11.8669 24.0568C11.8173 23.003 11.8069 22.6866 11.8011 20.0168C11.7953 17.347 11.8055 17.031 11.8517 15.9768C11.8933 15.0026 12.0563 14.4726 12.1917 14.12C12.3717 13.6522 12.5885 13.3199 12.9375 12.9685C13.2865 12.6171 13.6195 12.4007 14.0861 12.2183C14.4385 12.0807 14.9673 11.9171 15.9419 11.8707C16.9965 11.8207 17.3125 11.8107 19.982 11.8049C22.6514 11.7991 22.9682 11.8091 24.0232 11.8555C24.9974 11.8979 25.5276 12.0593 25.8798 12.1955C26.3472 12.3755 26.6798 12.5917 27.0312 12.9413C27.3826 13.2909 27.5992 13.6228 27.7816 14.0904C27.9194 14.4418 28.083 14.9704 28.129 15.9456C28.1792 17.0002 28.1906 17.3164 28.1954 19.9856C28.2002 22.6548 28.1908 22.9718 28.1446 24.0256C28.102 25.0006 27.9404 25.5302 27.8046 25.8834C27.6246 26.3504 27.4076 26.6834 27.0584 27.0346C26.7092 27.3858 26.3766 27.6022 25.9098 27.7846C25.5578 27.922 25.0284 28.086 24.0546 28.1324C23 28.182 22.684 28.1924 20.0136 28.1982C17.3431 28.204 17.0281 28.1932 15.9735 28.1476M24.1256 14.6554C24.126 14.8927 24.1968 15.1246 24.329 15.3217C24.4612 15.5189 24.6489 15.6724 24.8683 15.7628C25.0878 15.8533 25.3291 15.8766 25.5618 15.8299C25.7945 15.7832 26.0082 15.6685 26.1757 15.5003C26.3432 15.3322 26.4571 15.1181 26.503 14.8853C26.5489 14.6524 26.5247 14.4111 26.4334 14.192C26.3421 13.9729 26.188 13.7858 25.9904 13.6543C25.7927 13.5228 25.5606 13.4529 25.3232 13.4533C25.005 13.454 24.7001 13.581 24.4755 13.8064C24.2509 14.0318 24.1251 14.3372 24.1256 14.6554ZM14.8635 20.01C14.8691 22.846 17.1723 25.1398 20.0078 25.1344C22.8432 25.129 25.1386 22.826 25.1332 19.99C25.1278 17.154 22.824 14.8596 19.9882 14.8652C17.1523 14.8708 14.8581 17.1744 14.8635 20.01ZM16.6647 20.0064C16.6634 19.3471 16.8577 18.7022 17.2229 18.1533C17.588 17.6044 18.1078 17.1761 18.7164 16.9226C19.325 16.6691 19.9951 16.6018 20.642 16.7291C21.2889 16.8565 21.8835 17.1728 22.3506 17.638C22.8177 18.1033 23.1363 18.6966 23.2662 19.343C23.3961 19.9894 23.3315 20.6597 23.0804 21.2693C22.8293 21.8789 22.4031 22.4004 21.8556 22.7677C21.3081 23.1351 20.6641 23.3319 20.0048 23.3332C19.567 23.3341 19.1333 23.2488 18.7285 23.0821C18.3238 22.9154 17.9558 22.6706 17.6456 22.3616C17.3355 22.0527 17.0892 21.6857 16.9209 21.2816C16.7526 20.8775 16.6655 20.4441 16.6647 20.0064Z" fill="white"/>
</svg>
