<svg width="40" height="40" viewBox="0 0 40 40" fill="none" xmlns="http://www.w3.org/2000/svg">
<path fill-rule="evenodd" clip-rule="evenodd" d="M27.8136 13.4476C28.6739 13.6944 29.3523 14.4202 29.5818 15.3419C30 17.0137 30 20.5 30 20.5C30 20.5 30 23.9875 29.5818 25.6581C29.3523 26.5798 28.6739 27.3056 27.8136 27.5524C26.2545 28 20 28 20 28C20 28 13.7466 28 12.1864 27.5524C11.3261 27.3056 10.6477 26.5798 10.4182 25.6581C10 23.9863 10 20.5 10 20.5C10 20.5 10 17.0137 10.4182 15.3419C10.6477 14.4202 11.3261 13.6944 12.1864 13.4476C13.7455 13 20 13 20 13C20 13 26.2545 13 27.8136 13.4476ZM23 20.5L18 23V18L23 20.5Z" fill="#717171"/>
</svg>
