<svg width="20" height="20" viewBox="0 0 20 20" fill="none" xmlns="http://www.w3.org/2000/svg">
<path d="M8.64448 2.53545C7.43694 2.53545 6.25652 2.89352 5.25249 3.56439C4.24846 4.23526 3.46592 5.1888 3.00381 6.30442C2.54171 7.42004 2.4208 8.64763 2.65638 9.83196C2.89196 11.0163 3.47344 12.1042 4.3273 12.958C5.18116 13.8119 6.26904 14.3934 7.45337 14.629C8.6377 14.8645 9.8653 14.7436 10.9809 14.2815C12.0965 13.8194 13.0501 13.0369 13.7209 12.0328C14.3918 11.0288 14.7499 9.84839 14.7499 8.64086C14.7498 7.02163 14.1065 5.46876 12.9615 4.32379C11.8166 3.17883 10.2637 2.53555 8.64448 2.53545V2.53545Z" stroke="#1D1D1D" stroke-width="1.6" stroke-miterlimit="10"/>
<path d="M13.2012 13.1976L17.4651 17.4616" stroke="#1D1D1D" stroke-width="1.6" stroke-miterlimit="10"/>
</svg>
