<svg width="40" height="40" viewBox="0 0 40 40" fill="none" xmlns="http://www.w3.org/2000/svg">
<path fill-rule="evenodd" clip-rule="evenodd" d="M21.2118 29.9273C26.1513 29.3307 29.9816 25.1329 29.9999 20.0367H29.9996C29.9996 14.4936 25.5225 10 19.9998 10C19.9648 10 19.9298 10.0002 19.8948 10.0005C14.4266 10.057 10.0098 14.5188 10 20.0183C10.0084 24.7001 13.2342 28.6271 17.5842 29.7062V23.104H15.5223V20.0367H17.5842V18.7151C17.5842 15.299 19.1246 13.7156 22.4661 13.7156C23.0997 13.7156 24.1929 13.8405 24.6401 13.9649V16.7451C24.4041 16.7202 23.9941 16.7078 23.4849 16.7078C21.8453 16.7078 21.2118 17.3312 21.2118 18.952V20.0367H24.4781L23.9169 23.104H21.2118V29.9273Z" fill="#717171"/>
</svg>
