<svg width="40" height="40" viewBox="0 0 40 40" fill="none" xmlns="http://www.w3.org/2000/svg">
<path d="M14.3656 18.642C13.9856 18.642 13.6776 18.9409 13.6776 19.3097C13.6776 19.6784 13.9856 19.9787 14.3656 19.9787C14.7457 19.9787 15.0537 19.6798 15.0537 19.3097C15.0537 18.9395 14.7457 18.642 14.3656 18.642Z" fill="#717171"/>
<path d="M21.1684 18.5721C20.7587 18.5721 20.4267 18.8943 20.4267 19.2918C20.4267 19.6894 20.7587 20.0116 21.1684 20.0116C21.5781 20.0116 21.9101 19.6894 21.9101 19.2918C21.9101 18.8943 21.5781 18.5721 21.1684 18.5721Z" fill="#717171"/>
<path d="M24.9986 19.2918C24.9986 18.9039 25.3235 18.5886 25.7234 18.5886C26.1232 18.5886 26.4481 18.9039 26.4481 19.2918C26.4481 19.6798 26.1232 19.9951 25.7234 19.9951C25.3235 19.9951 24.9986 19.6798 24.9986 19.2918Z" fill="#717171"/>
<path fill-rule="evenodd" clip-rule="evenodd" d="M12.6774 12H27.327C28.8048 12 30.0029 13.1625 30.0029 14.5965V23.0331C30.0029 24.467 28.8048 25.6296 27.327 25.6296H22.1998L20.4394 29.6532C20.4394 29.6532 20.3194 30.0014 20.0255 30.0014C19.733 30.0014 19.6115 29.6532 19.6115 29.6532L17.8511 25.6296H12.6774C11.1995 25.6296 10.0015 24.467 10.0015 23.0331V14.5965C10.0015 13.1625 11.1995 12 12.6774 12ZM14.6327 21.0439C14.6327 21.0439 16.2758 21 16.2843 19.4577H16.2829C16.2829 19.4577 16.5047 17.655 14.733 17.4946C14.733 17.4946 13.9192 17.4864 13.6381 17.9525V16.1209C13.6381 16.1209 12.5163 16.1347 12.4414 16.1237V16.1209C12.4358 16.1223 12.4414 16.1237 12.4414 16.1237V20.9136H13.6381V20.6353C13.6381 20.6353 13.9969 21.0439 14.6327 21.0439ZM18.3908 20.9219V17.6427C18.3908 17.6427 18.5251 16.0401 16.6545 15.966V17.1107C16.6545 17.1107 17.2196 17.2341 17.2196 17.6756V20.9219H18.3908ZM19.2032 19.2932C19.2032 20.2611 20.082 21.0466 21.167 21.0466C22.2521 21.0466 23.1309 20.2611 23.1309 19.2932C23.1309 18.3254 22.2521 17.5398 21.167 17.5398C20.082 17.5398 19.2032 18.3254 19.2032 19.2932ZM25.8562 22.7123C27.6011 22.7123 27.5841 21.0466 27.5841 21.0466V17.5864H26.3959V17.9374C26.0074 17.4302 25.3759 17.496 25.3759 17.496C23.7751 17.6097 23.7412 19.041 23.7412 19.041V19.5647C23.7412 20.9452 25.1993 21.0466 25.1993 21.0466C26.2278 21.0466 26.3705 20.6024 26.3705 20.6024C26.379 21.6992 25.6457 21.6334 25.6457 21.6334H25.325V22.7123H25.8562Z" fill="#717171"/>
</svg>
