<svg width="40" height="40" viewBox="0 0 40 40" fill="none" xmlns="http://www.w3.org/2000/svg">
<path fill-rule="evenodd" clip-rule="evenodd" d="M27.8117 13.4476C28.6719 13.6944 29.3503 14.4202 29.5799 15.3419C29.998 17.0137 29.998 20.5 29.998 20.5C29.998 20.5 29.998 23.9875 29.5799 25.6581C29.3503 26.5798 28.6719 27.3056 27.8117 27.5524C26.2526 28 19.998 28 19.998 28C19.998 28 13.7446 28 12.1844 27.5524C11.3242 27.3056 10.6458 26.5798 10.4162 25.6581C9.99805 23.9863 9.99805 20.5 9.99805 20.5C9.99805 20.5 9.99805 17.0137 10.4162 15.3419C10.6458 14.4202 11.3242 13.6944 12.1844 13.4476C13.7435 13 19.998 13 19.998 13C19.998 13 26.2526 13 27.8117 13.4476ZM22.998 20.5L17.998 23V18L22.998 20.5Z" fill="white"/>
</svg>
