<svg width="40" height="40" viewBox="0 0 40 40" fill="none" xmlns="http://www.w3.org/2000/svg">
<path fill-rule="evenodd" clip-rule="evenodd" d="M21.2098 29.9273C26.1493 29.3307 29.9796 25.1329 29.998 20.0367H29.9976C29.9976 14.4936 25.5205 10 19.9978 10C19.9628 10 19.9278 10.0002 19.8929 10.0005C14.4246 10.057 10.0079 14.5188 9.99805 20.0183C10.0064 24.7001 13.2322 28.6271 17.5823 29.7062V23.104H15.5203V20.0367H17.5823V18.7151C17.5823 15.299 19.1226 13.7156 22.4642 13.7156C23.0978 13.7156 24.1909 13.8405 24.6381 13.9649V16.7451C24.4021 16.7202 23.9922 16.7078 23.483 16.7078C21.8434 16.7078 21.2098 17.3312 21.2098 18.952V20.0367H24.4761L23.915 23.104H21.2098V29.9273Z" fill="white"/>
</svg>
