<svg width="256" height="48" viewBox="0 0 256 48" fill="none" xmlns="http://www.w3.org/2000/svg">
<g clip-path="url(#clip0_665_35808)">
<path d="M47.8603 24C47.8603 37.2527 37.1442 48 23.9301 48C10.7161 48 0 37.2527 0 24C0 10.7473 10.7161 0 23.9301 0C37.1442 0 47.8603 10.7473 47.8603 24Z" fill="white"/>
<path d="M35.1553 22.3245C31.3526 19.7314 26.4838 20.7846 23.9221 24.6862C21.7901 27.9415 18.5681 28.3485 17.327 28.3485C13.2538 28.3485 10.4774 25.4761 9.64998 22.508C9.64998 22.508 9.63407 22.4522 9.62612 22.4203C9.61816 22.3884 9.6102 22.3564 9.60225 22.3245C9.27607 21.0798 9.19652 20.4974 9.19652 19.1809C9.19652 12.0878 16.4599 4.1809 26.9134 4.1809C37.3669 4.1809 43.7552 12.3591 45.3384 16.907C45.3065 16.8192 45.2827 16.7474 45.2588 16.6676C42.2118 7.77133 33.8108 1.38037 23.9062 1.38037C11.4638 1.38037 1.36035 11.5054 1.36035 24.0001C1.36035 35.1703 9.38745 44.7208 20.5331 44.7208C29.4114 44.7208 35.386 39.7261 38.1227 32.8405C39.6263 29.0745 38.5603 24.6463 35.1553 22.3245Z" fill="#003763"/>
<path d="M45.4738 17.3377C44.1532 12.9016 37.9798 4.17285 26.9137 4.17285C16.4601 4.17285 9.19678 12.0798 9.19678 19.1729C9.19678 20.4893 9.27633 21.0798 9.60251 22.3165C9.46726 21.7739 9.39566 21.2314 9.39566 20.7048C9.39566 13.3085 16.7704 8.19413 24.36 8.19413C34.6305 8.19413 42.9599 16.5399 42.9599 26.8404C42.9599 34.9149 38.3298 41.9042 31.5995 45.2633C40.2789 42.1197 46.4683 33.7819 46.4683 23.992C46.4683 21.6782 46.158 19.6356 45.4818 17.3377" fill="#E4022D"/>
<path d="M67.4549 27.0082V23.8885H58.9902V21.5427H78.5926V23.8885H70.1041V27.0082H77.0094V34.4603H74.3603V29.33H60.3268V27.0082H67.4469H67.4549ZM76.9697 13.4683V19.8433H74.3205V15.814H60.5256V13.4683H76.9697Z" fill="#555555"/>
<path d="M91.2895 31.6117H88.6562V16.7474H80.7007V14.3538H91.2895V31.6117ZM98.6006 21.3272H101.663V23.9841H98.6006V34.4123H95.9673V13.0293H98.6006V21.3272Z" fill="#555555"/>
<path d="M115.904 19.0293C115.904 19.8272 115.744 20.5772 115.426 21.2793C115.108 21.9814 114.678 22.6038 114.137 23.1463C113.581 23.6729 112.936 24.0958 112.212 24.407C111.488 24.7181 110.701 24.8777 109.857 24.8777C109.014 24.8777 108.25 24.7181 107.526 24.407C106.803 24.0958 106.158 23.6729 105.601 23.1463C105.044 22.6038 104.607 21.9814 104.297 21.2793C103.986 20.5772 103.827 19.8272 103.827 19.0293C103.827 18.2314 103.986 17.4814 104.297 16.7793C104.607 16.0772 105.044 15.4548 105.601 14.9123C106.158 14.3857 106.803 13.9628 107.526 13.6516C108.25 13.3405 109.03 13.1809 109.857 13.1809C110.685 13.1809 111.488 13.3405 112.212 13.6516C112.936 13.9628 113.581 14.3857 114.137 14.9123C114.678 15.4548 115.108 16.0772 115.426 16.7793C115.744 17.4814 115.904 18.2314 115.904 19.0293ZM105.052 33.9814V26.8405H107.678V31.6357H122.523V33.9814H105.052ZM113.374 19.0532C113.374 18.5745 113.278 18.1197 113.087 17.6969C112.896 17.274 112.65 16.891 112.347 16.5559C112.013 16.2527 111.639 16.0054 111.226 15.8139C110.812 15.6224 110.367 15.5266 109.889 15.5266C109.412 15.5266 108.982 15.6224 108.561 15.8139C108.139 16.0054 107.757 16.2527 107.423 16.5559C107.121 16.891 106.874 17.274 106.683 17.6969C106.492 18.1197 106.397 18.5745 106.397 19.0532C106.397 19.532 106.492 19.9788 106.683 20.3937C106.874 20.8086 107.121 21.1756 107.423 21.4947C107.757 21.8139 108.139 22.0692 108.561 22.2527C108.982 22.4362 109.428 22.524 109.889 22.524C110.351 22.524 110.812 22.4362 111.226 22.2527C111.639 22.0692 112.013 21.8139 112.347 21.4947C112.65 21.1756 112.896 20.8086 113.087 20.3937C113.278 19.9788 113.374 19.532 113.374 19.0532ZM119.682 26.7208V13.0293H122.332V26.7208H119.682Z" fill="#555555"/>
<path d="M145.57 22.0215V24.3193H125.967V22.0215H133.541V18.5188H136.166V22.0215H145.562H145.57ZM141.29 20.5853V15.7901H127.495V13.4683H143.939V20.5853H141.29ZM141.266 30.1996C141.266 30.9018 141.115 31.572 140.82 32.2023C140.526 32.8326 140.136 33.3752 139.659 33.822C139.134 34.3007 138.545 34.6837 137.893 34.9629C137.24 35.2422 136.54 35.3858 135.792 35.3858C135.045 35.3858 134.313 35.2422 133.652 34.9629C132.992 34.6837 132.403 34.3007 131.894 33.822C131.385 33.3752 130.987 32.8326 130.701 32.2023C130.414 31.572 130.271 30.9018 130.271 30.1996C130.271 29.4975 130.414 28.8113 130.701 28.197C130.987 27.5826 131.385 27.0321 131.894 26.5534C132.403 26.1066 132.992 25.7395 133.652 25.4603C134.313 25.181 135.029 25.0374 135.792 25.0374C136.556 25.0374 137.24 25.181 137.893 25.4603C138.545 25.7395 139.134 26.1066 139.659 26.5534C140.136 27.0321 140.526 27.5826 140.82 28.197C141.115 28.8113 141.266 29.4816 141.266 30.1996ZM138.64 30.1996C138.64 29.4177 138.362 28.7475 137.805 28.189C137.248 27.6305 136.58 27.3512 135.8 27.3512C135.021 27.3512 134.321 27.6305 133.756 28.189C133.191 28.7475 132.904 29.4177 132.904 30.1996C132.904 30.9816 133.191 31.6598 133.756 32.2262C134.321 32.7927 135.005 33.08 135.8 33.08C136.596 33.08 137.248 32.7927 137.805 32.2262C138.362 31.6598 138.64 30.9816 138.64 30.1996Z" fill="#555555"/>
<path d="M148.028 16.6995V14.3538H160.86V16.6995H155.482L161.361 30.6782L159.046 31.6836L154.528 20.7527L150.08 31.8511L147.694 30.8458L153.597 16.6995H148.028ZM164.329 13.0293H166.978V34.4123H164.329V13.0293Z" fill="#555555"/>
<path d="M190.216 22.1648V24.4627H170.614V22.1648H190.216ZM172.197 20.4414V12.9414H174.83V18.1675H188.887V20.4414H172.205H172.197ZM185.769 30.4148C185.769 31.101 185.626 31.7473 185.339 32.3457C185.053 32.9441 184.671 33.4707 184.194 33.9175C183.716 34.3643 183.151 34.7233 182.499 34.9866C181.847 35.2499 181.155 35.3856 180.423 35.3856C179.691 35.3856 178.999 35.2499 178.346 34.9866C177.694 34.7233 177.129 34.3643 176.652 33.9175C176.174 33.4707 175.793 32.9441 175.506 32.3457C175.22 31.7473 175.077 31.101 175.077 30.4148C175.077 29.7286 175.22 29.0824 175.506 28.484C175.793 27.8856 176.174 27.359 176.652 26.9122C177.129 26.4653 177.694 26.1063 178.346 25.843C178.999 25.5797 179.691 25.4441 180.423 25.4441C181.155 25.4441 181.847 25.5797 182.499 25.843C183.151 26.1063 183.716 26.4653 184.194 26.9122C184.671 27.359 185.053 27.8856 185.339 28.484C185.626 29.0824 185.769 29.7286 185.769 30.4148ZM183.167 30.4148C183.167 29.6808 182.889 29.0425 182.34 28.5079C181.791 27.9733 181.147 27.702 180.415 27.702C179.683 27.702 179.038 27.9733 178.489 28.5079C177.941 29.0425 177.662 29.6808 177.662 30.4148C177.662 31.1489 177.941 31.7872 178.489 32.3217C179.038 32.8563 179.683 33.1276 180.415 33.1276C181.147 33.1276 181.791 32.8563 182.34 32.3217C182.889 31.7872 183.167 31.1489 183.167 30.4148Z" fill="#555555"/>
<path d="M207.018 27.9415H201.139V33.7181H198.506V27.9415H192.841V25.5718H207.018V27.9415ZM205.562 18.8378C205.562 19.5719 205.411 20.266 205.109 20.9203C204.806 21.5745 204.393 22.141 203.868 22.6197C203.343 23.1144 202.73 23.5054 202.03 23.7926C201.33 24.0798 200.59 24.2234 199.81 24.2234C199.031 24.2234 198.291 24.0798 197.591 23.7926C196.891 23.5054 196.278 23.1144 195.753 22.6197C195.228 22.141 194.814 21.5745 194.512 20.9203C194.21 20.266 194.058 19.5719 194.058 18.8378C194.058 18.1038 194.21 17.4096 194.512 16.7554C194.814 16.1011 195.228 15.5266 195.753 15.032C196.278 14.5373 196.891 14.1463 197.591 13.8591C198.291 13.5719 199.031 13.4282 199.81 13.4282C200.59 13.4282 201.33 13.5719 202.03 13.8591C202.73 14.1463 203.343 14.5373 203.868 15.032C204.393 15.5266 204.806 16.1011 205.109 16.7554C205.411 17.4096 205.562 18.1038 205.562 18.8378ZM202.961 18.8378C202.961 17.9761 202.65 17.2421 202.03 16.6357C201.409 16.0293 200.67 15.7261 199.81 15.7261C198.951 15.7261 198.211 16.0293 197.599 16.6357C196.986 17.2421 196.676 17.9761 196.676 18.8378C196.676 19.6995 196.986 20.4176 197.599 21.032C198.211 21.6463 198.951 21.9575 199.81 21.9575C200.67 21.9575 201.409 21.6463 202.03 21.032C202.65 20.4176 202.961 19.6836 202.961 18.8378ZM208.72 13.0293H211.354V34.4123H208.72V13.0293Z" fill="#555555"/>
<path d="M229.349 25.8831H223.709V29.1225H221.06V25.8831H215.18V23.5374H229.357V25.8831H229.349ZM216.628 34.0533V27.9416H219.254V31.7315H233.932V34.0533H216.628ZM227.456 17.7289C227.456 18.415 227.313 19.0533 227.026 19.6438C226.74 20.2342 226.366 20.7608 225.904 21.2236C225.411 21.6704 224.838 22.0214 224.194 22.2768C223.55 22.5321 222.857 22.6597 222.126 22.6597C221.394 22.6597 220.702 22.5321 220.057 22.2768C219.413 22.0214 218.84 21.6704 218.347 21.2236C217.885 20.7608 217.511 20.2342 217.225 19.6438C216.939 19.0533 216.795 18.415 216.795 17.7289C216.795 17.0427 216.939 16.3964 217.225 15.798C217.511 15.1996 217.885 14.665 218.347 14.2023C218.84 13.7555 219.413 13.4044 220.057 13.1491C220.702 12.8938 221.394 12.7661 222.126 12.7661C222.857 12.7661 223.55 12.8938 224.194 13.1491C224.838 13.4044 225.411 13.7555 225.904 14.2023C226.366 14.665 226.74 15.1996 227.026 15.798C227.313 16.3964 227.456 17.0427 227.456 17.7289ZM224.902 17.7289C224.902 16.9629 224.624 16.3166 224.075 15.798C223.526 15.2794 222.873 15.0161 222.126 15.0161C221.378 15.0161 220.725 15.2794 220.176 15.798C219.628 16.3166 219.349 16.9629 219.349 17.7289C219.349 18.4948 219.628 19.1172 220.176 19.6358C220.725 20.1544 221.378 20.4177 222.126 20.4177C222.873 20.4177 223.526 20.1544 224.075 19.6358C224.624 19.1172 224.902 18.4789 224.902 17.7289ZM231.044 13.0294H233.677V29.3539H231.044V21.4709H228.076V19.173H231.044V13.0374V13.0294Z" fill="#555555"/>
<path d="M249.683 22.6196C249.683 23.2739 249.548 23.8962 249.278 24.4866C249.007 25.0771 248.641 25.5957 248.18 26.0425C247.703 26.4733 247.146 26.8164 246.509 27.0717C246.302 27.1515 246.064 27.2233 245.793 27.2872V29.992H251.672V32.3217H237.496V29.992H243.16V27.2872C242.889 27.2233 242.651 27.1515 242.444 27.0717C241.807 26.8164 241.251 26.4733 240.773 26.0425C240.312 25.5957 239.946 25.0771 239.675 24.4866C239.405 23.8962 239.27 23.2739 239.27 22.6196C239.27 21.9654 239.405 21.343 239.675 20.7606C239.946 20.1781 240.312 19.6595 240.773 19.2127C241.251 18.7659 241.807 18.4228 242.444 18.1834C243.08 17.9441 243.757 17.8244 244.473 17.8244C245.189 17.8244 245.865 17.9441 246.501 18.1834C247.138 18.4228 247.695 18.7659 248.172 19.2127C248.633 19.6595 248.999 20.1781 249.27 20.7606C249.54 21.343 249.675 21.9654 249.675 22.6196H249.683ZM243.041 15.1675V12.8936H245.889V15.1675H250.956V17.4414H237.957V15.1675H243.049H243.041ZM247.13 22.6196C247.13 21.9175 246.867 21.3111 246.35 20.8084C245.833 20.3058 245.204 20.0505 244.473 20.0505C243.741 20.0505 243.12 20.3058 242.619 20.8084C242.118 21.3111 241.863 21.9175 241.863 22.6196C241.863 23.3217 242.118 23.9281 242.619 24.4388C243.12 24.9494 243.741 25.2047 244.473 25.2047C245.204 25.2047 245.833 24.9494 246.35 24.4388C246.867 23.9281 247.13 23.3217 247.13 22.6196ZM253.367 13.0292H256V34.4122H253.367V13.0292Z" fill="#555555"/>
</g>
<defs>
<clipPath id="clip0_665_35808">
<rect width="256" height="48" fill="white"/>
</clipPath>
</defs>
</svg>
